<?xml version="1.0" standalone="no"?>
<!DOCTYPE svg PUBLIC "-//W3C//DTD SVG 20010904//EN"
 "http://www.w3.org/TR/2001/REC-SVG-20010904/DTD/svg10.dtd">
<svg version="1.0" xmlns="http://www.w3.org/2000/svg"
 width="404.000000pt" height="316.000000pt" viewBox="0 0 404.000000 316.000000"
 preserveAspectRatio="xMidYMid meet">

<g transform="translate(0.000000,316.000000) scale(0.100000,-0.100000)"
fill="#000000" stroke="none">
<path d="M2358 3075 c-160 -44 -268 -185 -289 -376 -21 -200 -62 -293 -180
-411 -111 -110 -257 -179 -451 -211 l-73 -13 85 -85 c63 -62 106 -95 163 -124
75 -39 77 -41 71 -70 -3 -16 -12 -43 -20 -59 -8 -16 -14 -36 -14 -45 0 -9 54
-72 120 -140 66 -68 120 -126 120 -130 0 -3 -35 -14 -77 -24 -219 -49 -428
-215 -537 -426 -60 -117 -86 -212 -93 -346 -9 -197 50 -390 169 -547 l52 -68
617 0 617 0 46 58 c56 69 128 213 153 302 13 49 18 103 18 220 0 135 -3 165
-23 230 -84 266 -263 454 -533 559 -60 24 -78 38 -193 158 -111 117 -126 137
-126 167 0 51 26 74 110 97 235 65 430 251 496 474 13 45 17 86 14 165 -7 233
-5 251 23 307 53 104 111 150 281 224 75 33 94 45 80 50 -28 11 -184 11 -222
0 -29 -9 -40 -6 -80 19 -98 59 -215 75 -324 45z m-429 -1311 c3 -2 -3 -20 -12
-39 -22 -46 -21 -61 2 -77 11 -8 68 -64 126 -126 l107 -112 -95 0 -95 0 -118
126 c-106 113 -118 129 -117 161 1 22 10 44 25 60 22 24 27 24 98 18 41 -4 77
-9 79 -11z m263 -867 c268 -132 268 -507 0 -639 -60 -30 -75 -33 -152 -33 -71
0 -95 5 -142 27 -162 75 -250 253 -203 414 33 116 102 194 213 241 82 34 203
30 284 -10z"/>
<path d="M945 2156 c-72 -14 -201 -61 -211 -77 -8 -13 71 -46 168 -71 137 -34
285 -18 421 48 l38 18 -38 23 c-94 58 -255 83 -378 59z"/>
</g>
</svg>
